# xmcd
#
# Track frame offsets:
#	150
#	17299
#	33530
#	51462
#	100418
#	121661
#	141300
#	161403
#	181921
#	218246
#	233746
#
# Disc length: 3542 seconds
#
# Revision: 0
# Processed by: cddbd v1.4PL0 Copyright (c) Steve Scherf et al.
# Submitted via: dBpowerAMP V4.0
#
DISCID=8f0dd40b
DTITLE=Big Allanbik - Destilado ao Vivo
DYEAR=1999
DGENRE=Blues
TTITLE0=Funny Bone
TTITLE1=I Fell So Good
TTITLE2=Down And Out
TTITLE3=Black Jack
TTITLE4=Good Clean Fun
TTITLE5=Falling Back In Love With You
TTITLE6=Red Hot Kisses
TTITLE7=Ride In Pony
TTITLE8=Time Does Tell
TTITLE9=Midnight Hour
TTITLE10=Let The Good Times Roll
EXTD=
EXTT0=
EXTT1=
EXTT2=
EXTT3=
EXTT4=
EXTT5=
EXTT6=
EXTT7=
EXTT8=
EXTT9=
EXTT10=
PLAYORDER=
